<svg width="45" height="45" viewBox="0 0 45 45" fill="none" xmlns="http://www.w3.org/2000/svg">
<path d="M27 7.40223H24.75C24.75 8.39767 25.4041 9.27479 26.3583 9.55874L27 7.40223ZM29.993 8.64308L28.921 10.6213C29.7965 11.0957 30.8797 10.9382 31.5839 10.2341L29.993 8.64308ZM36.3568 15.007L34.7659 13.416C34.0619 14.1202 33.9044 15.2035 34.3787 16.079L36.3568 15.007ZM37.5977 18L35.4413 18.6419C35.7253 19.5959 36.6023 20.25 37.5977 20.25V18ZM37.5977 27V24.75C36.6023 24.75 35.7253 25.4041 35.4413 26.3583L37.5977 27ZM36.3568 29.993L34.3787 28.921C33.9044 29.7965 34.0619 30.8799 34.7659 31.5839L36.3568 29.993ZM29.993 36.3568L31.5839 34.7659C30.8797 34.0619 29.7965 33.9044 28.921 34.3787L29.993 36.3568ZM27 37.5977L26.3583 35.4413C25.4041 35.7253 24.75 36.6023 24.75 37.5977H27ZM18 37.5977H20.25C20.25 36.6023 19.5959 35.7253 18.6419 35.4413L18 37.5977ZM15.007 36.3568L16.079 34.3787C15.2035 33.9041 14.1202 34.0616 13.4161 34.7659L15.007 36.3568ZM8.64311 29.993L10.2341 31.5839C10.9382 30.8797 11.0958 29.7965 10.6214 28.9208L8.64311 29.993ZM7.40225 27L9.55879 26.3581C9.27484 25.4041 8.3977 24.75 7.40225 24.75V27ZM7.40225 18V20.25C8.3977 20.25 9.27484 19.5959 9.55879 18.6417L7.40225 18ZM8.64311 15.0071L10.6214 16.0791C11.0958 15.2035 10.9383 14.1203 10.2341 13.4161L8.64311 15.0071ZM15.007 8.64313L13.4161 10.2341C14.1202 10.9383 15.2035 11.0958 16.079 10.6214L15.007 8.64313ZM18 7.40223L18.6419 9.55874C19.5959 9.27479 20.25 8.39767 20.25 7.40223H18ZM20.25 0C17.7648 0 15.75 2.01472 15.75 4.5H20.25V0ZM24.75 0H20.25V4.5H24.75V0ZM29.25 4.5C29.25 2.01472 27.2353 0 24.75 0V4.5H29.25ZM29.25 7.40223V4.5H24.75V7.40223H29.25ZM31.0648 6.66484C29.986 6.08024 28.8403 5.60237 27.6419 5.24572L26.3583 9.55874C27.2547 9.82555 28.1124 10.1832 28.921 10.6213L31.0648 6.66484ZM30.4549 4.99905L28.402 7.05209L31.5839 10.2341L33.6371 8.18102L30.4549 4.99905ZM36.819 4.99905C35.0615 3.24169 32.2123 3.24169 30.4549 4.99905L33.6371 8.18102L36.819 4.99905ZM40.0009 8.18105L36.819 4.99905L33.6371 8.18102L36.819 11.363L40.0009 8.18105ZM40.0009 14.545C41.7582 12.7876 41.7582 9.93839 40.0009 8.18105L36.819 11.363L40.0009 14.545ZM37.9478 16.598L40.0009 14.545L36.819 11.363L34.7659 13.416L37.9478 16.598ZM39.7543 17.3582C39.3977 16.1597 38.9198 15.0139 38.335 13.935L34.3787 16.079C34.8167 16.8875 35.1745 17.7453 35.4413 18.6419L39.7543 17.3582ZM37.5977 20.25H40.5V15.75H37.5977V20.25ZM40.5 20.25H45C45 17.7647 42.9854 15.75 40.5 15.75V20.25ZM40.5 20.25V24.75H45V20.25H40.5ZM40.5 24.75V29.25C42.9854 29.25 45 27.2353 45 24.75H40.5ZM40.5 24.75H37.5977V29.25H40.5V24.75ZM38.335 31.0648C38.9198 29.986 39.3977 28.8403 39.7543 27.6417L35.4413 26.3583C35.1745 27.2547 34.8167 28.1124 34.3787 28.921L38.335 31.0648ZM40.0009 30.4551L37.9478 28.402L34.7659 31.5839L36.819 33.6371L40.0009 30.4551ZM40.0009 36.819C41.7582 35.0615 41.7582 32.2123 40.0009 30.4551L36.819 33.6371L40.0009 36.819ZM36.819 40.0009L40.0009 36.819L36.819 33.6371L33.6371 36.819L36.819 40.0009ZM30.4549 40.0009C32.2123 41.7582 35.0615 41.7582 36.819 40.0009L33.6371 36.819L30.4549 40.0009ZM28.402 37.9478L30.4549 40.0009L33.6371 36.819L31.5839 34.7659L28.402 37.9478ZM27.6419 39.7543C28.8403 39.3977 29.986 38.9198 31.0648 38.335L28.921 34.3787C28.1124 34.8167 27.2547 35.1745 26.3583 35.4413L27.6419 39.7543ZM29.25 40.5V37.5977H24.75V40.5H29.25ZM24.75 45C27.2353 45 29.25 42.9854 29.25 40.5H24.75V45ZM20.25 45H24.75V40.5H20.25V45ZM15.75 40.5C15.75 42.9854 17.7648 45 20.25 45V40.5H15.75ZM15.75 37.5977V40.5H20.25V37.5977H15.75ZM13.9351 38.335C15.014 38.9198 16.1598 39.3977 17.3582 39.7543L18.6419 35.4413C17.7453 35.1745 16.8875 34.8167 16.079 34.3787L13.9351 38.335ZM14.5451 40.0009L16.598 37.9478L13.4161 34.7659L11.3631 36.8188L14.5451 40.0009ZM8.18109 40.0009C9.93845 41.7582 12.7877 41.7584 14.5451 40.0009L11.3631 36.8188L8.18109 40.0009ZM4.99912 36.8188L8.18109 40.0009L11.3631 36.8188L8.18109 33.6368L4.99912 36.8188ZM4.99912 30.4549C3.24175 32.2123 3.24175 35.0615 4.99912 36.8188L8.18109 33.6368L4.99912 30.4549ZM7.05211 28.402L4.99912 30.4549L8.18109 33.6368L10.2341 31.5839L7.05211 28.402ZM5.24574 27.6417C5.60241 28.8403 6.08027 29.986 6.66488 31.0648L10.6214 28.9208C10.1833 28.1124 9.82559 27.2547 9.55879 26.3581L5.24574 27.6417ZM7.40225 24.75H4.5V29.25H7.40225V24.75ZM4.5 24.75H0C0 27.2353 2.01472 29.25 4.5 29.25V24.75ZM4.5 24.75V20.25H0V24.75H4.5ZM4.5 20.25V15.75C2.01472 15.75 0 17.7647 0 20.25H4.5ZM4.5 20.25H7.40225V15.75H4.5V20.25ZM6.66488 13.9352C6.08029 15.014 5.60241 16.1598 5.24574 17.3582L9.55879 18.6417C9.82559 17.7453 10.1833 16.8876 10.6214 16.0791L6.66488 13.9352ZM4.99912 14.5451L7.05213 16.5981L10.2341 13.4161L8.18111 11.3631L4.99912 14.5451ZM4.99912 8.18114C3.24175 9.9385 3.24178 12.7877 4.99912 14.5451L8.18111 11.3631L4.99912 8.18114ZM8.18111 4.99916L4.99912 8.18114L8.18111 11.3631L11.3631 8.18114L8.18111 4.99916ZM14.5451 4.99916C12.7877 3.2418 9.93848 3.2418 8.18111 4.99916L11.3631 8.18114L14.5451 4.99916ZM16.598 7.05213L14.5451 4.99916L11.3631 8.18114L13.4161 10.2341L16.598 7.05213ZM17.3582 5.24572C16.1598 5.60239 15.014 6.08027 13.9351 6.66491L16.079 10.6214C16.8875 10.1832 17.7453 9.82557 18.6419 9.55874L17.3582 5.24572ZM15.75 4.5V7.40223H20.25V4.5H15.75Z" fill="white"/>
<path d="M22.5 29.25C26.2279 29.25 29.25 26.2279 29.25 22.5C29.25 18.7721 26.2279 15.75 22.5 15.75C18.7721 15.75 15.75 18.7721 15.75 22.5C15.75 26.2279 18.7721 29.25 22.5 29.25Z" fill="white" stroke="white" stroke-width="5.83333" stroke-linecap="round" stroke-linejoin="round"/>
</svg>
